<svg width="1164" height="255" xmlns="http://www.w3.org/2000/svg" xmlns:xlink="http://www.w3.org/1999/xlink" xml:space="preserve" overflow="hidden"><defs><clipPath id="clip0"><rect x="619" y="779" width="1164" height="255"/></clipPath></defs><g clip-path="url(#clip0)" transform="translate(-619 -779)"><path d="M762.359 867.028 762.359 907.417 784.698 907.417C787.438 907.417 789.835 906.776 791.891 905.496 793.946 904.215 795.524 902.398 796.626 900.045 797.729 897.692 798.28 894.937 798.28 891.78L798.28 882.933C798.28 879.717 797.729 876.902 796.626 874.489 795.524 872.077 793.946 870.23 791.891 868.949 789.835 867.668 787.438 867.028 784.698 867.028ZM859.269 866.939 859.269 903.485 882.055 903.485C884.795 903.485 887.178 902.904 889.203 901.743 891.229 900.581 892.792 898.898 893.895 896.694 894.997 894.49 895.548 891.899 895.548 888.92L895.548 881.95C895.548 878.912 894.997 876.261 893.895 873.998 892.792 871.734 891.229 869.992 889.203 868.771 887.178 867.549 884.795 866.939 882.055 866.939ZM979.23 866.403C975.417 866.403 972.096 867.192 969.267 868.771 966.437 870.349 964.263 872.628 962.744 875.606 961.225 878.585 960.465 882.07 960.465 886.061L960.465 938.691C960.465 942.682 961.225 946.167 962.744 949.146 964.263 952.124 966.437 954.418 969.267 956.026 972.096 957.635 975.417 958.439 979.23 958.439 983.042 958.439 986.363 957.635 989.193 956.026 992.022 954.418 994.197 952.124 995.716 949.146 997.235 946.167 997.994 942.682 997.994 938.691L997.994 886.061C997.994 882.07 997.235 878.585 995.716 875.606 994.197 872.628 992.022 870.349 989.193 868.771 986.363 867.192 983.042 866.403 979.23 866.403ZM1125.9 847.459 1135.01 847.459 1146.36 847.459 1196.93 847.459 1196.93 867.117 1146.36 867.117 1146.36 903.038 1189.79 903.038 1189.79 922.697 1146.36 922.697 1146.36 957.724 1196.93 957.724 1196.93 977.382 1146.36 977.382 1135.01 977.382 1125.9 977.382ZM1040.9 847.459 1050.1 847.459 1061.36 847.459 1111.13 847.459 1111.13 867.028 1061.36 867.028 1061.36 904.2 1103.98 904.2 1103.98 923.769 1061.36 923.769 1061.36 977.382 1040.9 977.382ZM741.896 847.459 751.993 847.459 762.359 847.459 784.429 847.459C791.518 847.459 797.684 848.859 802.926 851.659 808.168 854.459 812.204 858.465 815.034 863.677 817.863 868.89 819.278 875.04 819.278 882.129L819.278 892.762C819.278 899.732 817.863 905.793 815.034 910.946 812.204 916.099 808.168 920.061 802.926 922.831 797.684 925.601 791.518 926.986 784.429 926.986L762.359 926.986 762.359 977.382 741.896 977.382ZM838.896 847.37 847.832 847.37 859.269 847.37 881.608 847.37C888.757 847.37 894.967 848.725 900.239 851.436 905.511 854.146 909.562 858.063 912.391 863.186 915.221 868.309 916.635 874.325 916.635 881.236L916.635 888.831C916.635 895.801 915.221 901.862 912.391 907.015 909.562 912.167 905.511 916.129 900.239 918.899L896.273 920.644 921.193 977.382 897.781 977.382 875.235 923.054 859.269 923.054 859.269 977.382 838.896 977.382ZM1348.78 846.119C1355.04 846.119 1360.59 847.146 1365.45 849.202 1370.3 851.257 1374.35 854.295 1377.6 858.316 1380.85 862.337 1383.24 867.296 1384.79 873.194L1366.3 881.772C1364.69 876.589 1362.32 872.628 1359.19 869.887 1356.07 867.147 1352.39 865.777 1348.16 865.777 1342.26 865.777 1337.72 867.028 1334.53 869.53 1331.34 872.032 1329.75 875.576 1329.75 880.163L1329.75 884.452C1329.75 888.027 1330.7 890.916 1332.61 893.12 1334.52 895.324 1336.91 897.052 1339.8 898.302 1342.69 899.553 1346.67 900.924 1351.73 902.413 1352.03 902.532 1352.33 902.636 1352.63 902.726 1352.92 902.815 1353.25 902.919 1353.61 903.038 1353.85 903.098 1354.1 903.172 1354.37 903.262 1354.64 903.351 1354.92 903.426 1355.22 903.485 1361.71 905.51 1367.09 907.64 1371.35 909.874 1375.6 912.108 1379.18 915.474 1382.07 919.971 1384.96 924.469 1386.4 930.5 1386.4 938.066L1386.4 943.784C1386.4 951.171 1384.84 957.471 1381.71 962.683 1378.58 967.896 1374.01 971.872 1367.99 974.612 1361.98 977.352 1354.74 978.722 1346.28 978.722 1339.19 978.722 1332.92 977.65 1327.47 975.506 1322.02 973.361 1317.49 970.204 1313.89 966.034 1310.29 961.864 1307.74 956.711 1306.25 950.575L1325.55 942.087C1327.16 947.627 1329.81 951.826 1333.5 954.686 1337.2 957.545 1341.69 958.975 1347 958.975 1353.07 958.975 1357.78 957.649 1361.11 954.999 1364.45 952.348 1366.12 948.639 1366.12 943.874L1366.12 938.155C1366.12 934.76 1365.19 931.975 1363.35 929.8 1361.5 927.626 1359.15 925.928 1356.29 924.707 1353.43 923.486 1349.65 922.16 1344.94 920.731 1344.82 920.671 1344.69 920.626 1344.54 920.597 1344.39 920.567 1344.26 920.522 1344.14 920.463L1343.15 920.195C1336.01 918.11 1330.18 915.98 1325.68 913.806 1321.19 911.631 1317.34 908.206 1314.16 903.53 1310.97 898.854 1309.38 892.554 1309.38 884.631L1309.38 881.057C1309.38 873.67 1310.91 867.356 1313.98 862.114 1317.05 856.871 1321.53 852.895 1327.43 850.185 1333.32 847.474 1340.44 846.119 1348.78 846.119ZM1252.78 846.119C1259.04 846.119 1264.59 847.146 1269.45 849.202 1274.3 851.257 1278.35 854.295 1281.6 858.316 1284.85 862.337 1287.24 867.296 1288.79 873.194L1270.3 881.772C1268.69 876.589 1266.32 872.628 1263.19 869.887 1260.07 867.147 1256.39 865.777 1252.16 865.777 1246.26 865.777 1241.72 867.028 1238.53 869.53 1235.34 872.032 1233.75 875.576 1233.75 880.163L1233.75 884.452C1233.75 888.027 1234.7 890.916 1236.61 893.12 1238.52 895.324 1240.91 897.052 1243.8 898.302 1246.69 899.553 1250.67 900.924 1255.73 902.413 1256.03 902.532 1256.33 902.636 1256.63 902.726 1256.92 902.815 1257.25 902.919 1257.61 903.038 1257.85 903.098 1258.1 903.172 1258.37 903.262 1258.64 903.351 1258.92 903.426 1259.22 903.485 1265.71 905.51 1271.09 907.64 1275.35 909.874 1279.6 912.108 1283.18 915.474 1286.07 919.971 1288.96 924.469 1290.4 930.5 1290.4 938.066L1290.4 943.784C1290.4 951.171 1288.84 957.471 1285.71 962.683 1282.58 967.896 1278.01 971.872 1271.99 974.612 1265.98 977.352 1258.74 978.722 1250.28 978.722 1243.19 978.722 1236.92 977.65 1231.47 975.506 1226.02 973.361 1221.49 970.204 1217.89 966.034 1214.29 961.864 1211.74 956.711 1210.25 950.575L1229.55 942.087C1231.16 947.627 1233.81 951.826 1237.5 954.686 1241.2 957.545 1245.69 958.975 1251 958.975 1257.07 958.975 1261.78 957.649 1265.11 954.999 1268.45 952.348 1270.12 948.639 1270.12 943.874L1270.12 938.155C1270.12 934.76 1269.19 931.975 1267.35 929.8 1265.5 927.626 1263.15 925.928 1260.29 924.707 1257.43 923.486 1253.65 922.16 1248.94 920.731 1248.82 920.671 1248.69 920.626 1248.54 920.597 1248.39 920.567 1248.26 920.522 1248.14 920.463L1247.15 920.195C1240.01 918.11 1234.18 915.98 1229.68 913.806 1225.19 911.631 1221.34 908.206 1218.16 903.53 1214.97 898.854 1213.38 892.554 1213.38 884.631L1213.38 881.057C1213.38 873.67 1214.91 867.356 1217.98 862.114 1221.05 856.871 1225.53 852.895 1231.43 850.185 1237.32 847.474 1244.44 846.119 1252.78 846.119ZM979.23 846.119C987.272 846.119 994.286 847.727 1000.27 850.944 1006.26 854.161 1010.86 858.763 1014.08 864.75 1017.3 870.736 1018.9 877.781 1018.9 885.882L1018.9 938.959C1018.9 947.061 1017.3 954.105 1014.08 960.092 1010.86 966.079 1006.26 970.68 1000.27 973.897 994.286 977.114 987.272 978.722 979.23 978.722 971.188 978.722 964.173 977.114 958.187 973.897 952.2 970.68 947.598 966.079 944.381 960.092 941.164 954.105 939.556 947.061 939.556 938.959L939.556 885.882C939.556 877.781 941.164 870.736 944.381 864.75 947.598 858.763 952.2 854.161 958.187 850.944 964.173 847.727 971.188 846.119 979.23 846.119Z" stroke="#FFFFFF" stroke-width="3" stroke-linejoin="round" stroke-miterlimit="10" fill="#FFFFFF" fill-rule="evenodd"/><text fill="#000000" fill-opacity="0" font-family="Arial,Arial_MSFontService,sans-serif" font-size="132.604" x="741.896" y="962.147">PROFESS</text><path d="M1407.18 920.999 1461.51 920.999 1461.51 940.568 1407.18 940.568Z" stroke="#FFFFFF" stroke-width="3" stroke-linejoin="round" stroke-miterlimit="10" fill="#FFFFFF" fill-rule="evenodd"/><text fill="#000000" fill-opacity="0" font-family="Arial,Arial_MSFontService,sans-serif" font-size="19.5688" x="1407.18" y="938.122">-</text><path d="M1522.46 881.861 1508.5 933.509 1536.47 933.509ZM1604.86 867.028 1604.86 957.813 1622.19 957.813C1628.15 957.813 1632.74 956.25 1635.95 953.122 1639.17 949.995 1640.78 945.572 1640.78 939.853L1640.78 884.989C1640.78 879.27 1639.17 874.847 1635.95 871.719 1632.74 868.592 1628.15 867.028 1622.19 867.028ZM1584.4 847.459 1597 847.459 1604.86 847.459 1622.37 847.459C1630.65 847.459 1637.74 848.919 1643.64 851.838 1649.54 854.757 1654.02 859.016 1657.09 864.615 1660.15 870.215 1661.69 876.947 1661.69 884.81L1661.69 940.031C1661.69 947.776 1660.17 954.448 1657.13 960.047 1654.09 965.647 1649.63 969.936 1643.73 972.914 1637.83 975.893 1630.68 977.382 1622.28 977.382L1604.86 977.382 1597 977.382 1584.4 977.382ZM1514.69 847.459 1530.24 847.459 1569.91 977.382 1548.37 977.382 1541.73 952.899 1503.26 952.899 1496.64 977.382 1475.01 977.382Z" stroke="#FFFFFF" stroke-width="3" stroke-linejoin="round" stroke-miterlimit="10" fill="#FFFFFF" fill-rule="evenodd"/><text fill="#000000" fill-opacity="0" font-family="Arial,Arial_MSFontService,sans-serif" font-size="129.923" x="1475.01" y="961.142">AD</text></g></svg>