<svg width="1164" height="255" xmlns="http://www.w3.org/2000/svg" xmlns:xlink="http://www.w3.org/1999/xlink" xml:space="preserve" overflow="hidden"><defs><clipPath id="clip0"><rect x="619" y="343" width="1164" height="255"/></clipPath></defs><g clip-path="url(#clip0)" transform="translate(-619 -343)"><path d="M762.359 430.997 762.359 471.386 784.698 471.386C787.438 471.386 789.835 470.745 791.891 469.465 793.946 468.184 795.524 466.367 796.626 464.014 797.729 461.661 798.28 458.906 798.28 455.749L798.28 446.902C798.28 443.686 797.729 440.871 796.626 438.458 795.524 436.046 793.946 434.199 791.891 432.918 789.835 431.638 787.438 430.997 784.698 430.997ZM859.269 430.908 859.269 467.454 882.055 467.454C884.795 467.454 887.178 466.873 889.203 465.712 891.229 464.55 892.792 462.867 893.895 460.663 894.997 458.459 895.548 455.868 895.548 452.889L895.548 445.92C895.548 442.881 894.997 440.231 893.895 437.967 892.792 435.703 891.229 433.961 889.203 432.74 887.178 431.518 884.795 430.908 882.055 430.908ZM979.23 430.372C975.417 430.372 972.096 431.161 969.267 432.74 966.437 434.318 964.263 436.597 962.744 439.575 961.225 442.554 960.465 446.039 960.465 450.03L960.465 502.66C960.465 506.651 961.225 510.136 962.744 513.115 964.263 516.093 966.437 518.387 969.267 519.995 972.096 521.604 975.417 522.408 979.23 522.408 983.042 522.408 986.363 521.604 989.193 519.995 992.022 518.387 994.197 516.093 995.716 513.115 997.235 510.136 997.994 506.651 997.994 502.66L997.994 450.03C997.994 446.039 997.235 442.554 995.716 439.575 994.197 436.597 992.022 434.318 989.193 432.74 986.363 431.161 983.042 430.372 979.23 430.372ZM1125.9 411.428 1135.01 411.428 1146.36 411.428 1196.93 411.428 1196.93 431.087 1146.36 431.087 1146.36 467.007 1189.79 467.007 1189.79 486.666 1146.36 486.666 1146.36 521.693 1196.93 521.693 1196.93 541.351 1146.36 541.351 1135.01 541.351 1125.9 541.351ZM1040.9 411.428 1050.1 411.428 1061.36 411.428 1111.13 411.428 1111.13 430.997 1061.36 430.997 1061.36 468.169 1103.98 468.169 1103.98 487.738 1061.36 487.738 1061.36 541.351 1040.9 541.351ZM741.896 411.428 751.993 411.428 762.359 411.428 784.429 411.428C791.518 411.428 797.684 412.828 802.926 415.628 808.168 418.428 812.204 422.434 815.034 427.646 817.863 432.859 819.278 439.009 819.278 446.098L819.278 456.732C819.278 463.701 817.863 469.763 815.034 474.915 812.204 480.068 808.168 484.03 802.926 486.8 797.684 489.57 791.518 490.955 784.429 490.955L762.359 490.955 762.359 541.351 741.896 541.351ZM838.896 411.339 847.832 411.339 859.269 411.339 881.608 411.339C888.757 411.339 894.967 412.694 900.239 415.405 905.511 418.115 909.562 422.032 912.391 427.155 915.221 432.278 916.635 438.295 916.635 445.205L916.635 452.8C916.635 459.77 915.221 465.831 912.391 470.984 909.562 476.137 905.511 480.098 900.239 482.868L896.273 484.613 921.193 541.351 897.781 541.351 875.235 487.023 859.269 487.023 859.269 541.351 838.896 541.351ZM1348.78 410.088C1355.04 410.088 1360.59 411.116 1365.45 413.171 1370.3 415.226 1374.35 418.264 1377.6 422.285 1380.85 426.306 1383.24 431.265 1384.79 437.163L1366.3 445.741C1364.69 440.558 1362.32 436.597 1359.19 433.857 1356.07 431.116 1352.39 429.746 1348.16 429.746 1342.26 429.746 1337.72 430.997 1334.53 433.499 1331.34 436.001 1329.75 439.546 1329.75 444.132L1329.75 448.422C1329.75 451.996 1330.7 454.885 1332.61 457.089 1334.52 459.293 1336.91 461.021 1339.8 462.272 1342.69 463.523 1346.67 464.893 1351.73 466.382 1352.03 466.501 1352.33 466.605 1352.63 466.695 1352.92 466.784 1353.25 466.888 1353.61 467.007 1353.85 467.067 1354.1 467.141 1354.37 467.231 1354.64 467.32 1354.92 467.395 1355.22 467.454 1361.71 469.48 1367.09 471.609 1371.35 473.843 1375.6 476.077 1379.18 479.443 1382.07 483.94 1384.96 488.438 1386.4 494.469 1386.4 502.035L1386.4 507.754C1386.4 515.14 1384.84 521.44 1381.71 526.652 1378.58 531.865 1374.01 535.841 1367.99 538.581 1361.98 541.321 1354.74 542.692 1346.28 542.692 1339.19 542.692 1332.92 541.619 1327.47 539.475 1322.02 537.33 1317.49 534.173 1313.89 530.003 1310.29 525.833 1307.74 520.68 1306.25 514.545L1325.55 506.056C1327.16 511.596 1329.81 515.796 1333.5 518.655 1337.2 521.514 1341.69 522.944 1347 522.944 1353.07 522.944 1357.78 521.619 1361.11 518.968 1364.45 516.317 1366.12 512.609 1366.12 507.843L1366.12 502.124C1366.12 498.729 1365.19 495.944 1363.35 493.769 1361.5 491.595 1359.15 489.897 1356.29 488.676 1353.43 487.455 1349.65 486.13 1344.94 484.7 1344.82 484.64 1344.69 484.596 1344.54 484.566 1344.39 484.536 1344.26 484.491 1344.14 484.432L1343.15 484.164C1336.01 482.079 1330.18 479.949 1325.68 477.775 1321.19 475.6 1317.34 472.175 1314.16 467.499 1310.97 462.823 1309.38 456.523 1309.38 448.6L1309.38 445.026C1309.38 437.639 1310.91 431.325 1313.98 426.083 1317.05 420.84 1321.53 416.864 1327.43 414.154 1333.32 411.443 1340.44 410.088 1348.78 410.088ZM1252.78 410.088C1259.04 410.088 1264.59 411.116 1269.45 413.171 1274.3 415.226 1278.35 418.264 1281.6 422.285 1284.85 426.306 1287.24 431.265 1288.79 437.163L1270.3 445.741C1268.69 440.558 1266.32 436.597 1263.19 433.857 1260.07 431.116 1256.39 429.746 1252.16 429.746 1246.26 429.746 1241.72 430.997 1238.53 433.499 1235.34 436.001 1233.75 439.546 1233.75 444.132L1233.75 448.422C1233.75 451.996 1234.7 454.885 1236.61 457.089 1238.52 459.293 1240.91 461.021 1243.8 462.272 1246.69 463.523 1250.67 464.893 1255.73 466.382 1256.03 466.501 1256.33 466.605 1256.63 466.695 1256.92 466.784 1257.25 466.888 1257.61 467.007 1257.85 467.067 1258.1 467.141 1258.37 467.231 1258.64 467.32 1258.92 467.395 1259.22 467.454 1265.71 469.48 1271.09 471.609 1275.35 473.843 1279.6 476.077 1283.18 479.443 1286.07 483.94 1288.96 488.438 1290.4 494.469 1290.4 502.035L1290.4 507.754C1290.4 515.14 1288.84 521.44 1285.71 526.652 1282.58 531.865 1278.01 535.841 1271.99 538.581 1265.98 541.321 1258.74 542.692 1250.28 542.692 1243.19 542.692 1236.92 541.619 1231.47 539.475 1226.02 537.33 1221.49 534.173 1217.89 530.003 1214.29 525.833 1211.74 520.68 1210.25 514.545L1229.55 506.056C1231.16 511.596 1233.81 515.796 1237.5 518.655 1241.2 521.514 1245.69 522.944 1251 522.944 1257.07 522.944 1261.78 521.619 1265.11 518.968 1268.45 516.317 1270.12 512.609 1270.12 507.843L1270.12 502.124C1270.12 498.729 1269.19 495.944 1267.35 493.769 1265.5 491.595 1263.15 489.897 1260.29 488.676 1257.43 487.455 1253.65 486.13 1248.94 484.7 1248.82 484.64 1248.69 484.596 1248.54 484.566 1248.39 484.536 1248.26 484.491 1248.14 484.432L1247.15 484.164C1240.01 482.079 1234.18 479.949 1229.68 477.775 1225.19 475.6 1221.34 472.175 1218.16 467.499 1214.97 462.823 1213.38 456.523 1213.38 448.6L1213.38 445.026C1213.38 437.639 1214.91 431.325 1217.98 426.083 1221.05 420.84 1225.53 416.864 1231.43 414.154 1237.32 411.443 1244.44 410.088 1252.78 410.088ZM979.23 410.088C987.272 410.088 994.286 411.696 1000.27 414.913 1006.26 418.13 1010.86 422.732 1014.08 428.719 1017.3 434.705 1018.9 441.75 1018.9 449.851L1018.9 502.928C1018.9 511.03 1017.3 518.074 1014.08 524.061 1010.86 530.048 1006.26 534.65 1000.27 537.866 994.286 541.083 987.272 542.692 979.23 542.692 971.188 542.692 964.173 541.083 958.187 537.866 952.2 534.65 947.598 530.048 944.381 524.061 941.164 518.074 939.556 511.03 939.556 502.928L939.556 449.851C939.556 441.75 941.164 434.705 944.381 428.719 947.598 422.732 952.2 418.13 958.187 414.913 964.173 411.696 971.188 410.088 979.23 410.088Z" stroke="#000000" stroke-width="5" stroke-linejoin="round" stroke-miterlimit="10" fill-rule="evenodd"/><text fill="#000000" fill-opacity="0" font-family="Arial,Arial_MSFontService,sans-serif" font-size="132.604" x="741.896" y="526.116">PROFESS</text><path d="M1407.18 484.968 1461.51 484.968 1461.51 504.537 1407.18 504.537Z" stroke="#000000" stroke-width="5" stroke-linejoin="round" stroke-miterlimit="10" fill-rule="evenodd"/><text fill="#000000" fill-opacity="0" font-family="Arial,Arial_MSFontService,sans-serif" font-size="19.5688" x="1407.18" y="502.091">-</text><path d="M1522.46 445.83 1508.5 497.478 1536.47 497.478ZM1604.86 430.997 1604.86 521.782 1622.19 521.782C1628.15 521.782 1632.74 520.219 1635.95 517.091 1639.17 513.964 1640.78 509.541 1640.78 503.822L1640.78 448.958C1640.78 443.239 1639.17 438.816 1635.95 435.688 1632.74 432.561 1628.15 430.997 1622.19 430.997ZM1584.4 411.428 1597 411.428 1604.86 411.428 1622.37 411.428C1630.65 411.428 1637.74 412.888 1643.64 415.807 1649.54 418.726 1654.02 422.985 1657.09 428.585 1660.15 434.184 1661.69 440.916 1661.69 448.779L1661.69 504.001C1661.69 511.745 1660.17 518.417 1657.13 524.016 1654.09 529.616 1649.63 533.905 1643.73 536.883 1637.83 539.862 1630.68 541.351 1622.28 541.351L1604.86 541.351 1597 541.351 1584.4 541.351ZM1514.69 411.428 1530.24 411.428 1569.91 541.351 1548.37 541.351 1541.73 516.868 1503.26 516.868 1496.64 541.351 1475.01 541.351Z" stroke="#000000" stroke-width="5" stroke-linejoin="round" stroke-miterlimit="10" fill-rule="evenodd"/><text fill="#000000" fill-opacity="0" font-family="Arial,Arial_MSFontService,sans-serif" font-size="129.923" x="1475.01" y="525.111">AD</text></g></svg>